<?xml version="1.0" encoding="utf-8"?>
<!-- Generator: Adobe Illustrator 22.1.0, SVG Export Plug-In . SVG Version: 6.00 Build 0)  -->
<svg version="1.1" id="Layer_1" xmlns="http://www.w3.org/2000/svg" xmlns:xlink="http://www.w3.org/1999/xlink" x="0px" y="0px"
	 viewBox="0 0 512 512" style="enable-background:new 0 0 512 512;" xml:space="preserve">
<g>
	<path d="M31,393.5c0,20.7,16.8,37.5,37.5,37.5h375c20.7,0,37.5-16.8,37.5-37.5V256H31V393.5z M181,340.4c0-5.2,4.2-9.4,9.4-9.4
		h106.2c5.2,0,9.4,4.2,9.4,9.4v31.2c0,5.2-4.2,9.4-9.4,9.4H190.4c-5.2,0-9.4-4.2-9.4-9.4V340.4z M81,340.4c0-5.2,4.2-9.4,9.4-9.4
		h56.2c5.2,0,9.4,4.2,9.4,9.4v31.2c0,5.2-4.2,9.4-9.4,9.4H90.4c-5.2,0-9.4-4.2-9.4-9.4V340.4z M481,118.5V156H31v-37.5
		C31,97.8,47.8,81,68.5,81h375C464.2,81,481,97.8,481,118.5z"/>
</g>
</svg>
